# Blender v2.82 (sub 7) OBJ File: 'Pool-Table-Jay-Hardy.blend'
# www.blender.org
mtllib table_underside.mtl
o Table-underside_Plane.042
v -1.159177 0.525472 -0.606606
v -0.919047 0.525472 -0.618639
v -1.172847 0.525472 -0.464194
v -0.919047 0.525472 -0.464193
v 1.159177 0.525472 -0.606606
v 0.000000 0.525472 -0.618639
v 0.919047 0.525472 -0.618639
v 1.172847 0.525472 -0.464194
v 0.000000 0.525472 -0.464193
v 0.919047 0.525472 -0.464193
v -1.159177 0.525472 0.606606
v -1.172847 0.525472 0.000000
v -0.919047 0.525472 0.618639
v -0.919047 0.525472 0.000000
v -1.172847 0.525472 0.464194
v -0.919047 0.525472 0.464193
v 1.159177 0.525472 0.606606
v 0.000000 0.525472 0.618639
v 1.172847 0.525472 0.000000
v 0.000000 0.525472 0.000000
v 0.919047 0.525472 0.618639
v 0.919047 0.525472 -0.000000
v 1.172847 0.525472 0.464194
v 0.000000 0.525472 0.464193
v 0.919047 0.525472 0.464193
v -1.142225 0.525472 -0.613224
v -1.106491 0.525472 -0.617034
v -1.036840 0.525472 -0.618438
v -0.268741 0.525472 -0.618639
v -0.521891 0.525472 -0.618639
v -0.743856 0.525472 -0.618639
v -1.148377 0.525472 0.000000
v -1.108314 0.525472 0.000000
v -1.037068 0.525472 0.000000
v -0.268741 0.525472 0.000000
v -0.521891 0.525472 0.000000
v -0.743857 0.525472 0.000000
v -1.166696 0.525472 -0.592762
v -1.171024 0.525472 -0.568851
v -1.172619 0.525472 -0.528013
v -1.172847 0.525472 -0.134198
v -1.172847 0.525472 -0.261136
v -1.172847 0.525472 -0.373554
v 0.000000 0.525472 -0.598177
v 0.000000 0.525472 -0.570455
v 0.000000 0.525472 -0.528214
v -0.000000 0.525472 -0.134198
v -0.000000 0.525472 -0.261136
v 0.000000 0.525472 -0.373554
v -0.919047 0.525472 -0.598177
v -0.919047 0.525472 -0.570455
v -0.919047 0.525472 -0.528214
v -0.919047 0.525472 -0.134198
v -0.919047 0.525472 -0.261136
v -0.919047 0.525472 -0.373554
v -1.148377 0.525472 -0.464194
v -1.108314 0.525472 -0.464194
v -1.037068 0.525472 -0.464193
v -0.268741 0.525472 -0.464193
v -0.521891 0.525472 -0.464193
v -0.743857 0.525472 -0.464193
v 1.142225 0.525472 -0.613224
v 1.106491 0.525472 -0.617034
v 1.036840 0.525472 -0.618438
v 0.268741 0.525472 -0.618639
v 0.521891 0.525472 -0.618639
v 0.743856 0.525472 -0.618639
v 1.148377 0.525472 0.000000
v 1.108314 0.525472 0.000000
v 1.037068 0.525472 -0.000000
v 0.268741 0.525472 -0.000000
v 0.521891 0.525472 -0.000000
v 0.743857 0.525472 0.000000
v 1.166696 0.525472 -0.592762
v 1.171024 0.525472 -0.568851
v 1.172619 0.525472 -0.528013
v 1.172847 0.525472 -0.134198
v 1.172847 0.525472 -0.261136
v 1.172847 0.525472 -0.373554
v 0.919047 0.525472 -0.598177
v 0.919047 0.525472 -0.570455
v 0.919047 0.525472 -0.528214
v 0.919047 0.525472 -0.134198
v 0.919047 0.525472 -0.261136
v 0.919047 0.525472 -0.373554
v 1.148377 0.525472 -0.464194
v 1.108314 0.525472 -0.464194
v 1.037068 0.525472 -0.464193
v 0.268741 0.525472 -0.464193
v 0.521891 0.525472 -0.464193
v 0.743857 0.525472 -0.464193
v -1.142225 0.525472 0.613224
v -1.106491 0.525472 0.617034
v -1.036840 0.525472 0.618438
v -0.268741 0.525472 0.618639
v -0.521891 0.525472 0.618639
v -0.743856 0.525472 0.618639
v -1.166696 0.525472 0.592762
v -1.171024 0.525472 0.568851
v -1.172619 0.525472 0.528013
v -1.172847 0.525472 0.134198
v -1.172847 0.525472 0.261136
v -1.172847 0.525472 0.373554
v 0.000000 0.525472 0.598177
v 0.000000 0.525472 0.570455
v 0.000000 0.525472 0.528214
v 0.000000 0.525472 0.134198
v 0.000000 0.525472 0.261136
v 0.000000 0.525472 0.373554
v -0.919047 0.525472 0.598177
v -0.919047 0.525472 0.570455
v -0.919047 0.525472 0.528214
v -0.919047 0.525472 0.134198
v -0.919047 0.525472 0.261136
v -0.919047 0.525472 0.373554
v -1.148377 0.525472 0.464194
v -1.108314 0.525472 0.464194
v -1.037068 0.525472 0.464193
v -0.268741 0.525472 0.464193
v -0.521891 0.525472 0.464193
v -0.743857 0.525472 0.464193
v 1.142225 0.525472 0.613224
v 1.106491 0.525472 0.617034
v 1.036840 0.525472 0.618438
v 0.268741 0.525472 0.618639
v 0.521891 0.525472 0.618639
v 0.743856 0.525472 0.618639
v 1.166696 0.525472 0.592762
v 1.171024 0.525472 0.568851
v 1.172619 0.525472 0.528013
v 1.172847 0.525472 0.134198
v 1.172847 0.525472 0.261136
v 1.172847 0.525472 0.373554
v 0.919047 0.525472 0.598177
v 0.919047 0.525472 0.570455
v 0.919047 0.525472 0.528214
v 0.919047 0.525472 0.134198
v 0.919047 0.525472 0.261136
v 0.919047 0.525472 0.373554
v 1.148377 0.525472 0.464194
v 1.108314 0.525472 0.464194
v 1.037068 0.525472 0.464193
v 0.268741 0.525472 0.464193
v 0.521891 0.525472 0.464193
v 0.743857 0.525472 0.464193
v -1.037068 0.525472 -0.134198
v -1.037068 0.525472 -0.261136
v -1.037068 0.525472 -0.373554
v -1.108314 0.525472 -0.134198
v -1.108314 0.525472 -0.261136
v -1.108314 0.525472 -0.373554
v -1.148377 0.525472 -0.134198
v -1.148377 0.525472 -0.261136
v -1.148377 0.525472 -0.373554
v -1.145334 0.525472 -0.595499
v -1.147427 0.525472 -0.569619
v -1.148258 0.525472 -0.528109
v -1.107365 0.525472 -0.597341
v -1.108010 0.525472 -0.570188
v -1.108276 0.525472 -0.528180
v -1.036950 0.525472 -0.598072
v -1.037030 0.525472 -0.570422
v -1.037064 0.525472 -0.528210
v -0.268741 0.525472 -0.134198
v -0.268741 0.525472 -0.261136
v -0.268741 0.525472 -0.373554
v -0.521891 0.525472 -0.134198
v -0.521891 0.525472 -0.261136
v -0.521891 0.525472 -0.373554
v -0.743857 0.525472 -0.134198
v -0.743857 0.525472 -0.261136
v -0.743857 0.525472 -0.373554
v -0.268741 0.525472 -0.528214
v -0.268741 0.525472 -0.570455
v -0.268741 0.525472 -0.598177
v -0.521891 0.525472 -0.528214
v -0.521891 0.525472 -0.570455
v -0.521891 0.525472 -0.598177
v -0.743857 0.525472 -0.528214
v -0.743857 0.525472 -0.570455
v -0.743857 0.525472 -0.598177
v 1.037068 0.525472 -0.134198
v 1.108314 0.525472 -0.134198
v 1.148377 0.525472 -0.134198
v 1.037068 0.525472 -0.261136
v 1.108314 0.525472 -0.261136
v 1.148377 0.525472 -0.261136
v 1.037068 0.525472 -0.373554
v 1.108314 0.525472 -0.373554
v 1.148376 0.525472 -0.373554
v 1.145334 0.525472 -0.595499
v 1.107365 0.525472 -0.597341
v 1.036950 0.525472 -0.598072
v 1.147427 0.525472 -0.569619
v 1.108010 0.525472 -0.570188
v 1.037030 0.525472 -0.570422
v 1.148258 0.525472 -0.528109
v 1.108276 0.525472 -0.528180
v 1.037064 0.525472 -0.528210
v 0.268741 0.525472 -0.134198
v 0.521891 0.525472 -0.134198
v 0.743857 0.525472 -0.134198
v 0.268741 0.525472 -0.261136
v 0.521891 0.525472 -0.261136
v 0.743857 0.525472 -0.261136
v 0.268741 0.525472 -0.373554
v 0.521891 0.525472 -0.373554
v 0.743857 0.525472 -0.373554
v 0.268741 0.525472 -0.528214
v 0.521891 0.525472 -0.528214
v 0.743857 0.525472 -0.528214
v 0.268741 0.525472 -0.570455
v 0.521891 0.525472 -0.570455
v 0.743857 0.525472 -0.570455
v 0.268741 0.525472 -0.598177
v 0.521891 0.525472 -0.598177
v 0.743857 0.525472 -0.598177
v -1.037068 0.525472 0.134198
v -1.108314 0.525472 0.134198
v -1.148377 0.525472 0.134198
v -1.037068 0.525472 0.261136
v -1.108314 0.525472 0.261136
v -1.148377 0.525472 0.261136
v -1.037068 0.525472 0.373554
v -1.108314 0.525472 0.373554
v -1.148376 0.525472 0.373554
v -1.145334 0.525472 0.595499
v -1.107365 0.525472 0.597341
v -1.036950 0.525472 0.598072
v -1.147427 0.525472 0.569619
v -1.108010 0.525472 0.570188
v -1.037030 0.525472 0.570422
v -1.148258 0.525472 0.528109
v -1.108276 0.525472 0.528180
v -1.037064 0.525472 0.528210
v -0.268741 0.525472 0.134198
v -0.521891 0.525472 0.134198
v -0.743857 0.525472 0.134198
v -0.268741 0.525472 0.261136
v -0.521891 0.525472 0.261136
v -0.743857 0.525472 0.261136
v -0.268741 0.525472 0.373554
v -0.521891 0.525472 0.373554
v -0.743857 0.525472 0.373554
v -0.268741 0.525472 0.528214
v -0.521891 0.525472 0.528214
v -0.743857 0.525472 0.528214
v -0.268741 0.525472 0.570455
v -0.521891 0.525472 0.570455
v -0.743857 0.525472 0.570455
v -0.268741 0.525472 0.598177
v -0.521891 0.525472 0.598177
v -0.743857 0.525472 0.598177
v 1.037068 0.525472 0.134198
v 1.037068 0.525472 0.261136
v 1.037068 0.525472 0.373554
v 1.108314 0.525472 0.134198
v 1.108314 0.525472 0.261136
v 1.108314 0.525472 0.373554
v 1.148377 0.525472 0.134198
v 1.148377 0.525472 0.261136
v 1.148377 0.525472 0.373554
v 1.145334 0.525472 0.595499
v 1.147427 0.525472 0.569619
v 1.148258 0.525472 0.528109
v 1.107365 0.525472 0.597341
v 1.108010 0.525472 0.570188
v 1.108276 0.525472 0.528180
v 1.036950 0.525472 0.598072
v 1.037030 0.525472 0.570422
v 1.037064 0.525472 0.528210
v 0.268741 0.525472 0.134198
v 0.268741 0.525472 0.261136
v 0.268741 0.525472 0.373554
v 0.521891 0.525472 0.134198
v 0.521891 0.525472 0.261136
v 0.521891 0.525472 0.373554
v 0.743857 0.525472 0.134198
v 0.743857 0.525472 0.261136
v 0.743857 0.525472 0.373554
v 0.268741 0.525472 0.528214
v 0.268741 0.525472 0.570455
v 0.268741 0.525472 0.598177
v 0.521891 0.525472 0.528214
v 0.521891 0.525472 0.570455
v 0.521891 0.525472 0.598177
v 0.743857 0.525472 0.528214
v 0.743857 0.525472 0.570455
v 0.743857 0.525472 0.598177
vn 0.0000 1.0000 0.0000
g Table-underside_Plane.042_Base
usemtl Base
s off
f 146//1 147//1 150//1 149//1
f 147//1 148//1 151//1 150//1
f 149//1 150//1 153//1 152//1
f 150//1 151//1 154//1 153//1
f 14//1 53//1 146//1 34//1
f 53//1 54//1 147//1 146//1
f 54//1 55//1 148//1 147//1
f 55//1 4//1 58//1 148//1
f 148//1 58//1 57//1 151//1
f 151//1 57//1 56//1 154//1
f 154//1 56//1 3//1 43//1
f 153//1 154//1 43//1 42//1
f 152//1 153//1 42//1 41//1
f 32//1 152//1 41//1 12//1
f 33//1 149//1 152//1 32//1
f 34//1 146//1 149//1 33//1
f 155//1 156//1 159//1 158//1
f 156//1 157//1 160//1 159//1
f 158//1 159//1 162//1 161//1
f 159//1 160//1 163//1 162//1
f 1//1 38//1 155//1 26//1
f 38//1 39//1 156//1 155//1
f 39//1 40//1 157//1 156//1
f 40//1 3//1 56//1 157//1
f 157//1 56//1 57//1 160//1
f 160//1 57//1 58//1 163//1
f 163//1 58//1 4//1 52//1
f 162//1 163//1 52//1 51//1
f 161//1 162//1 51//1 50//1
f 28//1 161//1 50//1 2//1
f 27//1 158//1 161//1 28//1
f 26//1 155//1 158//1 27//1
f 164//1 165//1 168//1 167//1
f 165//1 166//1 169//1 168//1
f 167//1 168//1 171//1 170//1
f 168//1 169//1 172//1 171//1
f 20//1 47//1 164//1 35//1
f 47//1 48//1 165//1 164//1
f 48//1 49//1 166//1 165//1
f 49//1 9//1 59//1 166//1
f 166//1 59//1 60//1 169//1
f 169//1 60//1 61//1 172//1
f 172//1 61//1 4//1 55//1
f 171//1 172//1 55//1 54//1
f 170//1 171//1 54//1 53//1
f 37//1 170//1 53//1 14//1
f 36//1 167//1 170//1 37//1
f 35//1 164//1 167//1 36//1
f 173//1 174//1 177//1 176//1
f 174//1 175//1 178//1 177//1
f 176//1 177//1 180//1 179//1
f 177//1 178//1 181//1 180//1
f 9//1 46//1 173//1 59//1
f 46//1 45//1 174//1 173//1
f 45//1 44//1 175//1 174//1
f 44//1 6//1 29//1 175//1
f 175//1 29//1 30//1 178//1
f 178//1 30//1 31//1 181//1
f 181//1 31//1 2//1 50//1
f 180//1 181//1 50//1 51//1
f 179//1 180//1 51//1 52//1
f 61//1 179//1 52//1 4//1
f 60//1 176//1 179//1 61//1
f 59//1 173//1 176//1 60//1
f 182//1 183//1 186//1 185//1
f 183//1 184//1 187//1 186//1
f 185//1 186//1 189//1 188//1
f 186//1 187//1 190//1 189//1
f 22//1 70//1 182//1 83//1
f 70//1 69//1 183//1 182//1
f 69//1 68//1 184//1 183//1
f 68//1 19//1 77//1 184//1
f 184//1 77//1 78//1 187//1
f 187//1 78//1 79//1 190//1
f 190//1 79//1 8//1 86//1
f 189//1 190//1 86//1 87//1
f 188//1 189//1 87//1 88//1
f 85//1 188//1 88//1 10//1
f 84//1 185//1 188//1 85//1
f 83//1 182//1 185//1 84//1
f 191//1 192//1 195//1 194//1
f 192//1 193//1 196//1 195//1
f 194//1 195//1 198//1 197//1
f 195//1 196//1 199//1 198//1
f 5//1 62//1 191//1 74//1
f 62//1 63//1 192//1 191//1
f 63//1 64//1 193//1 192//1
f 64//1 7//1 80//1 193//1
f 193//1 80//1 81//1 196//1
f 196//1 81//1 82//1 199//1
f 199//1 82//1 10//1 88//1
f 198//1 199//1 88//1 87//1
f 197//1 198//1 87//1 86//1
f 76//1 197//1 86//1 8//1
f 75//1 194//1 197//1 76//1
f 74//1 191//1 194//1 75//1
f 200//1 201//1 204//1 203//1
f 201//1 202//1 205//1 204//1
f 203//1 204//1 207//1 206//1
f 204//1 205//1 208//1 207//1
f 20//1 71//1 200//1 47//1
f 71//1 72//1 201//1 200//1
f 72//1 73//1 202//1 201//1
f 73//1 22//1 83//1 202//1
f 202//1 83//1 84//1 205//1
f 205//1 84//1 85//1 208//1
f 208//1 85//1 10//1 91//1
f 207//1 208//1 91//1 90//1
f 206//1 207//1 90//1 89//1
f 49//1 206//1 89//1 9//1
f 48//1 203//1 206//1 49//1
f 47//1 200//1 203//1 48//1
f 209//1 210//1 213//1 212//1
f 210//1 211//1 214//1 213//1
f 212//1 213//1 216//1 215//1
f 213//1 214//1 217//1 216//1
f 9//1 89//1 209//1 46//1
f 89//1 90//1 210//1 209//1
f 90//1 91//1 211//1 210//1
f 91//1 10//1 82//1 211//1
f 211//1 82//1 81//1 214//1
f 214//1 81//1 80//1 217//1
f 217//1 80//1 7//1 67//1
f 216//1 217//1 67//1 66//1
f 215//1 216//1 66//1 65//1
f 44//1 215//1 65//1 6//1
f 45//1 212//1 215//1 44//1
f 46//1 209//1 212//1 45//1
f 218//1 219//1 222//1 221//1
f 219//1 220//1 223//1 222//1
f 221//1 222//1 225//1 224//1
f 222//1 223//1 226//1 225//1
f 14//1 34//1 218//1 113//1
f 34//1 33//1 219//1 218//1
f 33//1 32//1 220//1 219//1
f 32//1 12//1 101//1 220//1
f 220//1 101//1 102//1 223//1
f 223//1 102//1 103//1 226//1
f 226//1 103//1 15//1 116//1
f 225//1 226//1 116//1 117//1
f 224//1 225//1 117//1 118//1
f 115//1 224//1 118//1 16//1
f 114//1 221//1 224//1 115//1
f 113//1 218//1 221//1 114//1
f 227//1 228//1 231//1 230//1
f 228//1 229//1 232//1 231//1
f 230//1 231//1 234//1 233//1
f 231//1 232//1 235//1 234//1
f 11//1 92//1 227//1 98//1
f 92//1 93//1 228//1 227//1
f 93//1 94//1 229//1 228//1
f 94//1 13//1 110//1 229//1
f 229//1 110//1 111//1 232//1
f 232//1 111//1 112//1 235//1
f 235//1 112//1 16//1 118//1
f 234//1 235//1 118//1 117//1
f 233//1 234//1 117//1 116//1
f 100//1 233//1 116//1 15//1
f 99//1 230//1 233//1 100//1
f 98//1 227//1 230//1 99//1
f 236//1 237//1 240//1 239//1
f 237//1 238//1 241//1 240//1
f 239//1 240//1 243//1 242//1
f 240//1 241//1 244//1 243//1
f 20//1 35//1 236//1 107//1
f 35//1 36//1 237//1 236//1
f 36//1 37//1 238//1 237//1
f 37//1 14//1 113//1 238//1
f 238//1 113//1 114//1 241//1
f 241//1 114//1 115//1 244//1
f 244//1 115//1 16//1 121//1
f 243//1 244//1 121//1 120//1
f 242//1 243//1 120//1 119//1
f 109//1 242//1 119//1 24//1
f 108//1 239//1 242//1 109//1
f 107//1 236//1 239//1 108//1
f 245//1 246//1 249//1 248//1
f 246//1 247//1 250//1 249//1
f 248//1 249//1 252//1 251//1
f 249//1 250//1 253//1 252//1
f 24//1 119//1 245//1 106//1
f 119//1 120//1 246//1 245//1
f 120//1 121//1 247//1 246//1
f 121//1 16//1 112//1 247//1
f 247//1 112//1 111//1 250//1
f 250//1 111//1 110//1 253//1
f 253//1 110//1 13//1 97//1
f 252//1 253//1 97//1 96//1
f 251//1 252//1 96//1 95//1
f 104//1 251//1 95//1 18//1
f 105//1 248//1 251//1 104//1
f 106//1 245//1 248//1 105//1
f 254//1 255//1 258//1 257//1
f 255//1 256//1 259//1 258//1
f 257//1 258//1 261//1 260//1
f 258//1 259//1 262//1 261//1
f 22//1 137//1 254//1 70//1
f 137//1 138//1 255//1 254//1
f 138//1 139//1 256//1 255//1
f 139//1 25//1 142//1 256//1
f 256//1 142//1 141//1 259//1
f 259//1 141//1 140//1 262//1
f 262//1 140//1 23//1 133//1
f 261//1 262//1 133//1 132//1
f 260//1 261//1 132//1 131//1
f 68//1 260//1 131//1 19//1
f 69//1 257//1 260//1 68//1
f 70//1 254//1 257//1 69//1
f 263//1 264//1 267//1 266//1
f 264//1 265//1 268//1 267//1
f 266//1 267//1 270//1 269//1
f 267//1 268//1 271//1 270//1
f 17//1 128//1 263//1 122//1
f 128//1 129//1 264//1 263//1
f 129//1 130//1 265//1 264//1
f 130//1 23//1 140//1 265//1
f 265//1 140//1 141//1 268//1
f 268//1 141//1 142//1 271//1
f 271//1 142//1 25//1 136//1
f 270//1 271//1 136//1 135//1
f 269//1 270//1 135//1 134//1
f 124//1 269//1 134//1 21//1
f 123//1 266//1 269//1 124//1
f 122//1 263//1 266//1 123//1
f 272//1 273//1 276//1 275//1
f 273//1 274//1 277//1 276//1
f 275//1 276//1 279//1 278//1
f 276//1 277//1 280//1 279//1
f 20//1 107//1 272//1 71//1
f 107//1 108//1 273//1 272//1
f 108//1 109//1 274//1 273//1
f 109//1 24//1 143//1 274//1
f 274//1 143//1 144//1 277//1
f 277//1 144//1 145//1 280//1
f 280//1 145//1 25//1 139//1
f 279//1 280//1 139//1 138//1
f 278//1 279//1 138//1 137//1
f 73//1 278//1 137//1 22//1
f 72//1 275//1 278//1 73//1
f 71//1 272//1 275//1 72//1
f 281//1 282//1 285//1 284//1
f 282//1 283//1 286//1 285//1
f 284//1 285//1 288//1 287//1
f 285//1 286//1 289//1 288//1
f 24//1 106//1 281//1 143//1
f 106//1 105//1 282//1 281//1
f 105//1 104//1 283//1 282//1
f 104//1 18//1 125//1 283//1
f 283//1 125//1 126//1 286//1
f 286//1 126//1 127//1 289//1
f 289//1 127//1 21//1 134//1
f 288//1 289//1 134//1 135//1
f 287//1 288//1 135//1 136//1
f 145//1 287//1 136//1 25//1
f 144//1 284//1 287//1 145//1
f 143//1 281//1 284//1 144//1
l 1 26
l 26 27
l 27 28
l 28 2
l 6 29
l 29 30
l 30 31
l 31 2
l 12 32
l 32 33
l 33 34
l 34 14
l 20 35
l 35 36
l 36 37
l 37 14
l 1 38
l 38 39
l 39 40
l 40 3
l 12 41
l 41 42
l 42 43
l 43 3
l 6 44
l 44 45
l 45 46
l 46 9
l 20 47
l 47 48
l 48 49
l 49 9
l 2 50
l 50 51
l 51 52
l 52 4
l 14 53
l 53 54
l 54 55
l 55 4
l 3 56
l 56 57
l 57 58
l 58 4
l 9 59
l 59 60
l 60 61
l 61 4
l 5 62
l 62 63
l 63 64
l 64 7
l 6 65
l 65 66
l 66 67
l 67 7
l 19 68
l 68 69
l 69 70
l 70 22
l 20 71
l 71 72
l 72 73
l 73 22
l 5 74
l 74 75
l 75 76
l 76 8
l 19 77
l 77 78
l 78 79
l 79 8
l 7 80
l 80 81
l 81 82
l 82 10
l 22 83
l 83 84
l 84 85
l 85 10
l 8 86
l 86 87
l 87 88
l 88 10
l 9 89
l 89 90
l 90 91
l 91 10
l 11 92
l 92 93
l 93 94
l 94 13
l 18 95
l 95 96
l 96 97
l 97 13
l 11 98
l 98 99
l 99 100
l 100 15
l 12 101
l 101 102
l 102 103
l 103 15
l 18 104
l 104 105
l 105 106
l 106 24
l 20 107
l 107 108
l 108 109
l 109 24
l 13 110
l 110 111
l 111 112
l 112 16
l 14 113
l 113 114
l 114 115
l 115 16
l 15 116
l 116 117
l 117 118
l 118 16
l 24 119
l 119 120
l 120 121
l 121 16
l 17 122
l 122 123
l 123 124
l 124 21
l 18 125
l 125 126
l 126 127
l 127 21
l 17 128
l 128 129
l 129 130
l 130 23
l 19 131
l 131 132
l 132 133
l 133 23
l 21 134
l 134 135
l 135 136
l 136 25
l 22 137
l 137 138
l 138 139
l 139 25
l 23 140
l 140 141
l 141 142
l 142 25
l 24 143
l 143 144
l 144 145
l 145 25
